#!OML:ASF F:\VICON\USERDATA\INSTALL\rory3\rory3.ASF
:FULLY-SPECIFIED
:DEGREES
235
root 6.87296 18.0781 -2.55487 -8.19284 -51.3339 10.0687
lowerback 11.5852 1.03879 -4.47872
upperback 1.34107 0.705983 -1.20141
thorax -5.13388 0.410833 1.1555
lowerneck -21.5107 -3.60069 -9.71172
upperneck 25.9685 -3.55747 5.76945
head 12.4797 -1.83306 3.22742
rclavicle 3.36443e-014 -2.14687e-014
rhumerus -36.302 -14.6072 -79.9138
rradius 36.5638
rwrist 8.08056
rhand -12.9707 7.8229
rfingers 7.12502
rthumb 13.1214 -21.7443
lclavicle 3.36443e-014 -2.14687e-014
lhumerus -34.3198 5.33937 81.7706
lradius 33.2008
lwrist -10.6781
lhand -14.7865 26.173
lfingers 7.12502
lthumb 11.3707 55.8447
rfemur -17.0044 -1.48851 11.6231
rtibia 73.0519
rfoot -0.487815 1.28695
rtoes 7.82588
lfemur -8.73863 -2.52437 -30.7387
ltibia 21.402
lfoot -8.32183 -2.15233
ltoes 2.45579
236
root 6.78027 18.0661 -2.46645 -8.12838 -51.139 9.92204
lowerback 11.7301 0.901741 -4.45985
upperback 1.25025 0.521786 -1.11055
thorax -5.30092 0.325695 1.26739
lowerneck -21.4728 -3.5324 -9.69253
upperneck 26.2066 -3.45466 5.67132
head 12.5551 -1.80534 3.2089
rclavicle 3.16068e-014 3.97569e-016
rhumerus -36.7664 -12.7881 -80.4114
rradius 37.7339
rwrist 6.38328
rhand -13.1087 7.25214
rfingers 7.12502
rthumb 12.9885 -22.3235
lclavicle 3.16068e-014 3.97569e-016
lhumerus -34.1011 5.06961 81.8036
lradius 33.6151
lwrist -10.7368
lhand -13.8607 26.0324
lfingers 7.12502
lthumb 12.2635 55.6529
rfemur -18.1731 -1.67334 11.8125
rtibia 73.1909
rfoot -1.83711 0.898019
rtoes 6.42677
lfemur -8.30069 -2.77734 -30.7658
ltibia 21.6295
lfoot -8.73174 -1.82346
ltoes 2.70214
237
root 6.68649 18.0505 -2.37799 -8.18184 -50.9636 9.88236
lowerback 11.8291 0.82261 -4.49323
upperback 1.23772 0.407998 -1.08273
thorax -5.36342 0.272138 1.33296
lowerneck -21.3669 -3.52275 -9.67823
upperneck 26.2589 -3.46161 5.66939
head 12.5549 -1.81056 3.20579
rclavicle 1.08387e-013 -8.34896e-015
rhumerus -37.0031 -11.8896 -80.6933
rradius 38.5256
rwrist 5.41275
rhand -13.0822 7.0803
rfingers 7.12502
rthumb 13.014 -22.4938
lclavicle 1.08387e-013 -8.34896e-015
lhumerus -33.6587 4.36406 81.9323
lradius 33.815
lwrist -10.0994
lhand -14.4287 25.195
lfingers 7.12502
lthumb 11.7157 54.8474
rfemur -19.2636 -1.73287 11.937
rtibia 73.17
rfoot -3.09429 0.507557
rtoes 6.50354
lfemur -7.90524 -2.81306 -30.8441
ltibia 21.9998
lfoot -9.28543 -1.70193
ltoes 2.55242
238
root 6.59113 18.0351 -2.29158 -8.36719 -50.7572 9.99118
lowerback 11.8379 0.764745 -4.68459
upperback 1.35153 0.310154 -1.04872
thorax -5.24401 0.223844 1.49303
lowerneck -21.4138 -3.5489 -9.68745
upperneck 26.2002 -3.48844 5.67373
head 12.5438 -1.82051 3.20304
rclavicle -4.46769e-014 -7.95139e-016
rhumerus -36.7764 -11.788 -80.663
rradius 38.7686
rwrist 5.31714
rhand -12.9729 7.1525
rfingers 7.12502
rthumb 13.1193 -22.4148
lclavicle -4.46769e-014 -7.95139e-016
lhumerus -32.9666 3.72208 82.1528
lradius 33.9819
lwrist -9.10923
lhand -15.5935 25.1989
lfingers 7.12502
lthumb 10.5923 54.9119
rfemur -20.2955 -1.88087 11.9439
rtibia 72.9944
rfoot -4.36002 0.271907
rtoes 5.6708
lfemur -7.54568 -2.69819 -31.0098
ltibia 22.4627
lfoot -9.96405 -1.76491
ltoes 2.31286
239
root 6.49574 18.02 -2.20648 -8.59643 -50.5418 10.1667
lowerback 11.9254 0.696264 -4.8769
upperback 1.39555 0.190345 -1.03352
thorax -5.2397 0.167871 1.63652
lowerneck -21.4711 -3.57495 -9.77415
upperneck 26.2427 -3.50983 5.73681
head 12.5777 -1.83042 3.23942
rclavicle -1.13755e-013 7.95139e-015
rhumerus -36.6616 -11.6948 -80.5824
rradius 38.9645
rwrist 5.38599
rhand -12.8741 7.17811
rfingers 7.12502
rthumb 13.2146 -22.3831
lclavicle -1.13755e-013 7.95139e-015
lhumerus -32.4295 3.31053 82.2903
lradius 34.2711
lwrist -8.56417
lhand -16.0807 25.9548
lfingers 7.12502
lthumb 10.1223 55.6913
rfemur -21.3139 -2.02722 11.887
rtibia 72.6835
rfoot -5.55814 0.200857
rtoes 5.5042
lfemur -7.20055 -2.72211 -31.2179
ltibia 22.8952
lfoot -10.452 -1.82575
ltoes 4.05299
240
root 6.39981 18.0036 -2.11768 -8.79631 -50.3921 10.3266
lowerback 12.0066 0.630765 -4.98544
upperback 1.36312 0.0824512 -1.04254
thorax -5.31242 0.119097 1.70535
lowerneck -21.2889 -3.5679 -9.8944
upperneck 26.207 -3.52533 5.89278
head 12.5337 -1.83147 3.31739
rclavicle 6.60959e-014 -1.59028e-015
rhumerus -36.7562 -11.5642 -80.4801
rradius 39.1747
rwrist 5.43485
rhand -12.8686 7.36035
rfingers 7.12502
rthumb 13.2198 -22.2005
lclavicle 6.60959e-014 -1.59028e-015
lhumerus -32.0355 2.72613 82.3894
lradius 34.5408
lwrist -8.22843
lhand -16.2114 26.5669
lfingers 7.12502
lthumb 9.99621 56.3096
rfemur -22.3077 -2.13287 11.8544
rtibia 72.2124
rfoot -6.56408 0.175159
rtoes 5.36867
lfemur -6.84256 -2.89013 -31.4153
ltibia 23.2881
lfoot -10.8126 -1.74277
ltoes 7.16395
241
root 6.30462 17.9858 -2.03099 -8.99226 -50.281 10.4523
lowerback 12.1581 0.582655 -5.10984
upperback 1.33448 -0.00954134 -1.05088
thorax -5.421 0.0792218 1.78143
lowerneck -21.181 -3.5563 -9.86298
upperneck 26.1822 -3.55508 5.96599
head 12.5052 -1.8334 3.33506
rclavicle -2.78299e-015 7.95139e-016
rhumerus -36.8127 -11.4936 -80.4352
rradius 39.3368
rwrist 5.50441
rhand -12.9957 7.26571
rfingers 7.12502
rthumb 13.0973 -22.303
lclavicle -2.78299e-015 7.95139e-016
lhumerus -31.6218 2.27797 82.4012
lradius 34.797
lwrist -8.00418
lhand -16.3492 27.098
lfingers 7.12502
lthumb 9.86325 56.847
rfemur -23.2695 -2.24886 11.8729
rtibia 71.6052
rfoot -7.38631 0.168064
rtoes 3.81449
lfemur -6.44466 -3.01878 -31.5897
ltibia 23.6602
lfoot -11.2476 -1.6466
ltoes 8.83105
242
root 6.20884 17.9626 -1.94936 -9.11861 -50.1664 10.6063
lowerback 12.1958 0.561461 -5.33168
upperback 1.34234 -0.0703998 -1.05507
thorax -5.42939 0.0539154 1.91198
lowerneck -21.2274 -3.58521 -9.68875
upperneck 26.2133 -3.60675 5.80713
head 12.5249 -1.85956 3.23533
rclavicle 1.01827e-013 -1.51076e-014
rhumerus -36.7046 -11.5214 -80.4288
rradius 39.4273
rwrist 5.5454
rhand -13.0434 7.10545
rfingers 7.12502
rthumb 13.0514 -22.4662
lclavicle 1.01827e-013 -1.51076e-014
lhumerus -31.1664 2.18254 82.3448
lradius 35.1145
lwrist -7.99928
lhand -16.1924 26.8935
lfingers 7.12502
lthumb 10.0146 56.6352
rfemur -24.3308 -2.38867 11.902
rtibia 70.8911
rfoot -8.12546 -0.0865025
rtoes 2.11792
lfemur -6.1233 -2.92825 -31.7646
ltibia 23.9908
lfoot -11.7807 -1.59309
ltoes 7.86546
243
root 6.11147 17.9357 -1.86438 -9.25315 -50.0471 10.8027
lowerback 12.177 0.526339 -5.50845
upperback 1.34452 -0.140307 -1.06798
thorax -5.4113 0.0226729 2.00947
lowerneck -21.3038 -3.62238 -9.76291
upperneck 26.2939 -3.63697 5.83212
head 12.5779 -1.87767 3.25399
rclavicle 1.43125e-014 1.70955e-014
rhumerus -36.6719 -11.366 -80.4301
rradius 39.5869
rwrist 5.56525
rhand -13.018 7.04014
rfingers 7.12502
rthumb 13.0758 -22.53
lclavicle 1.43125e-014 1.70955e-014
lhumerus -30.7552 1.99442 82.3531
lradius 35.4207
lwrist -7.89162
lhand -15.9086 26.7367
lfingers 7.12502
lthumb 10.2883 56.4651
rfemur -25.3665 -2.52241 11.8569
rtibia 70.0694
rfoot -8.9351 -0.463906
rtoes 1.37505
lfemur -5.79882 -2.88289 -31.9706
ltibia 24.2787
lfoot -12.2727 -1.48258
ltoes 6.50923
244
root 6.01397 17.925 -1.77383 -9.30754 -49.9122 10.8815
lowerback 12.1646 0.487714 -5.54191
upperback 1.33639 -0.19479 -1.06144
thorax -5.40879 -0.00309596 2.04418
lowerneck -21.2282 -3.66325 -9.90823
upperneck 26.2752 -3.69196 5.96165
head 12.5667 -1.90059 3.31935
rclavicle 4.89507e-014 -7.95139e-015
rhumerus -36.7089 -11.2352 -80.3855
rradius 39.7389
rwrist 5.56777
rhand -13.0087 7.15168
rfingers 7.12502
rthumb 13.0848 -22.4179
lclavicle 4.89507e-014 -7.95139e-015
lhumerus -30.3451 1.52385 82.4373
lradius 35.7201
lwrist -7.54956
lhand -15.7411 26.8762
lfingers 7.12502
lthumb 10.4499 56.5965
rfemur -26.2305 -2.66743 11.847
rtibia 69.0397
rfoot -9.73208 -0.648981
rtoes 1.57553
lfemur -5.45573 -3.06462 -32.0897
ltibia 24.515
lfoot -12.5949 -1.62933
ltoes 8.52246
245
root 5.91653 17.9147 -1.69107 -9.40617 -49.7069 11.0973
lowerback 12.1616 0.4036 -5.75948
upperback 1.31701 -0.338049 -1.0933
thorax -5.41583 -0.0686015 2.15672
lowerneck -21.1803 -3.6197 -9.8716
upperneck 26.225 -3.669 6.03665
head 12.5348 -1.87667 3.34537
rclavicle -7.21091e-014 1.39149e-014
rhumerus -36.5935 -11.2364 -80.4452
rradius 39.7509
rwrist 5.51423
rhand -13.0447 7.25317
rfingers 7.12502
rthumb 13.0501 -22.3186
lclavicle -7.21091e-014 1.39149e-014
lhumerus -29.9165 1.34683 82.3346
lradius 36.023
lwrist -7.40466
lhand -15.7787 26.8144
lfingers 7.12502
lthumb 10.4137 56.5365
rfemur -27.1115 -2.83346 11.8311
rtibia 67.8174
rfoot -10.3318 -0.94103
rtoes 1.80858
lfemur -5.16579 -3.09301 -32.2841
ltibia 24.7048
lfoot -12.8752 -1.88636
ltoes 10.804
